<?xml version="1.0" encoding="utf-8"?>
<!-- Generator: Adobe Illustrator 15.1.0, SVG Export Plug-In . SVG Version: 6.00 Build 0)  -->
<!DOCTYPE svg PUBLIC "-//W3C//DTD SVG 1.1//EN" "http://www.w3.org/Graphics/SVG/1.1/DTD/svg11.dtd">
<svg version="1.1" id="Layer_1" xmlns="http://www.w3.org/2000/svg" xmlns:xlink="http://www.w3.org/1999/xlink" x="0px" y="0px"
	 width="595.279px" height="841.89px" viewBox="0 0 595.279 841.89" enable-background="new 0 0 595.279 841.89"
	 xml:space="preserve">
<g>
	<path d="M-89.632,775.482c-49.406,12.127-93.388,24.959-144.549,19.221c-18.521-2.082-32.04-18.822-44.314-31.285
		c-10.816-10.982-22.533,2.783-36.916-8.014c-16.21-12.188-28.021-25.748-48.278-31.717c-19.846-5.85-37.994-22.854-46.305-41.646
		c-6.731-15.232-1.76-30.172-22.457-29.838c-19.056,0.307-26.979,2.428-42.521-10.615c-14.943-12.539-30.817-25.918-41.532-42.438
		c-13.99-21.568-5.896-41.291,1.915-63.707c30.337-87.041,107.807-148.288,181.314-198.778
		c79.569-54.656,158.95-109.73,237.501-165.851c7.123-5.089,14.249-11.15,23.005-13.235c5.805-1.382,17.478,3.849,21.995,0.849
		c8.056-5.351,6.104-22.246,15.94-30.057C3.629,97.828,46.337,71.514,86.531,43.268C169.188-14.817,251.818-72.94,334.455-131.054
		c12.752-8.967,40.542-21.248,48.188-35.303c7.793-14.332,3.161-30.131,26.267-28.355c20.229,1.554,37.957-16.522,53.556-26.867
		c20.087-13.324,40.872-21.896,63.273-30.596c87.524-33.985,177.823-62.888,264.198-99.572c15.261-6.483,42.226-12.27,58.457-6.458
		c14.506,5.193,11.097,29.865,11.513,41.488c1.871,52.305,2.627,104.763,5.483,157.021c2.55,46.663-9.895,95.269-16.653,141.258
		c-7.001,47.614-23.479,90.959-39.618,136.055c-13.084,36.559-20.91,85.042-56.851,106.564
		c-17.792,10.653-20.326,14.808-6.604,31.055c11.586,13.717,39.033,35.407,40.455,54.208c1.471,19.399-30.151,29.772-43.377,36.995
		c-21.207,11.583-42.123,23.708-63.135,35.641c-43.22,24.542-78.496,58.912-113.59,93.625
		c-25.602,25.324-46.109,64.793-75.567,85.049c-13.134,9.031-29.866,11.803-45.333,8.287c-19.904-4.523-39.783-24.012-60.975-16.838
		c-18.754,6.352-30.483,9.916-39.68,28.412c-7.354,14.801-12.853,28.791-29.152,35.547c-15.405,6.383-33.782,10.812-49.006,1.791
		c-25.128-14.9-33.917-11.105-59.647,1.383c-16.993,8.248-33.346,16.977-52.597,18.34c-17.438,1.234-36.015,18.008-50.262,26.986
		c-17.974,11.326-35.84,22.818-53.723,34.287c-11.936,17.496-39.64,37.17-43.275,38.705
		C-0.861,765.445-64.716,769.367-89.632,775.482z"/>
</g>
</svg>
